<svg width="41" height="37" viewBox="0 0 41 37" fill="none" xmlns="http://www.w3.org/2000/svg">
<path d="M30.8606 6.42926C31.1924 6.42926 31.4612 6.16472 31.4612 5.83825V5.04377C31.4612 4.7173 31.1924 4.45276 30.8606 4.45276C30.5288 4.45276 30.26 4.7173 30.26 5.04377V5.83825C30.26 6.16464 30.5289 6.42926 30.8606 6.42926Z" fill="white"/>
<path d="M37.3949 11.6773C37.0631 11.6773 36.7943 11.9418 36.7943 12.2683C36.7943 12.5948 37.0631 12.8593 37.3949 12.8593H38.2022C38.5339 12.8593 38.8027 12.5948 38.8027 12.2683C38.8027 11.9418 38.5339 11.6773 38.2022 11.6773H37.3949Z" fill="white"/>
<path d="M23.519 11.6773C23.1873 11.6773 22.9184 11.9418 22.9184 12.2683C22.9184 12.5948 23.1873 12.8593 23.519 12.8593H24.3264C24.6581 12.8593 24.927 12.5948 24.927 12.2683C24.927 11.9418 24.6581 11.6773 24.3264 11.6773H23.519Z" fill="white"/>
<path d="M33.4947 30.5557C32.428 30.5557 31.5602 31.4097 31.5602 32.4592C31.5602 33.5088 32.428 34.3628 33.4947 34.3628C34.5612 34.3628 35.429 33.5088 35.429 32.4592C35.429 31.4097 34.5612 30.5557 33.4947 30.5557ZM33.4947 33.1807C33.0903 33.1807 32.7614 32.8571 32.7614 32.4592C32.7614 32.0614 33.0903 31.7377 33.4947 31.7377C33.899 31.7377 34.2279 32.0614 34.2279 32.4592C34.2279 32.8571 33.899 33.1807 33.4947 33.1807Z" fill="white"/>
<path d="M11.5652 32.4592C11.5652 33.5088 12.433 34.3628 13.4997 34.3628C14.5663 34.3628 15.434 33.5088 15.434 32.4592C15.434 31.4097 14.5663 30.5557 13.4997 30.5557C12.433 30.5557 11.5652 31.4096 11.5652 32.4592ZM14.2328 32.4592C14.2328 32.8571 13.904 33.1807 13.4997 33.1807C13.0953 33.1807 12.7664 32.8571 12.7664 32.4592C12.7664 32.0614 13.0953 31.7377 13.4997 31.7377C13.904 31.7377 14.2328 32.0614 14.2328 32.4592Z" fill="white"/>
<path d="M17.5772 23.3882C18.2553 22.7388 18.3334 21.6092 17.5632 20.8716L15.0669 18.4804C14.1663 17.6181 12.7207 17.6372 11.8442 18.5232L11.3767 18.9959C11.1454 19.2299 11.1505 19.604 11.3882 19.8316L13.7945 22.1365L11.3882 24.4414C11.274 24.5507 11.2087 24.7002 11.2065 24.8568C11.2044 25.0136 11.2656 25.1647 11.3767 25.2771L11.8442 25.7497C12.7235 26.6387 14.1661 26.6556 15.0669 25.7925L17.5772 23.3882ZM12.705 24.9254L12.6563 24.8763L15.0745 22.5601C15.1906 22.4489 15.2562 22.2961 15.2562 22.1366C15.2562 21.9771 15.1907 21.8243 15.0745 21.7131L12.6563 19.3968L12.705 19.3477C13.1196 18.9286 13.8032 18.9195 14.2291 19.3274L16.7254 21.7186C16.9919 21.9738 16.9562 22.3335 16.7395 22.5412L14.2291 24.9457C13.8052 25.3516 13.123 25.348 12.705 24.9254Z" fill="white"/>
<path d="M30.26 12.2683C30.26 12.5948 30.5288 12.8593 30.8606 12.8593H32.9031C33.2348 12.8593 33.5036 12.5948 33.5036 12.2683C33.5036 11.9418 33.2348 11.6773 32.9031 11.6773H31.4612V7.99678C31.4612 7.6703 31.1924 7.40577 30.8606 7.40577C30.5288 7.40577 30.26 7.6703 30.26 7.99678V12.2683Z" fill="white"/>
<path d="M10.2597 7.21727H20.6011C20.9328 7.21727 21.2016 6.95274 21.2016 6.62626C21.2016 6.29979 20.9328 6.03525 20.6011 6.03525H10.2597C9.92801 6.03525 9.6591 6.29979 9.6591 6.62626C9.6591 6.95274 9.92801 7.21727 10.2597 7.21727Z" fill="white"/>
<path d="M7.75292 10.2706H18.4876C18.8192 10.2706 19.0881 10.0061 19.0881 9.67959C19.0881 9.35311 18.8192 9.08858 18.4876 9.08858H7.75292C7.42124 9.08858 7.15234 9.35311 7.15234 9.67959C7.15234 10.0061 7.42124 10.2706 7.75292 10.2706Z" fill="white"/>
<path d="M13.8942 11.8115C13.5625 11.8115 13.2936 12.076 13.2936 12.4025C13.2936 12.729 13.5625 12.9935 13.8942 12.9935H19.2358C19.5675 12.9935 19.8364 12.729 19.8364 12.4025C19.8364 12.076 19.5675 11.8115 19.2358 11.8115H13.8942Z" fill="white"/>
<path d="M8.83062 11.8115C8.49893 11.8115 8.23003 12.076 8.23003 12.4025C8.23003 12.729 8.49893 12.9935 8.83062 12.9935H11.4966C11.8283 12.9935 12.0972 12.729 12.0972 12.4025C12.0972 12.076 11.8283 11.8115 11.4966 11.8115H8.83062Z" fill="white"/>
<path d="M0.600586 21.1325H2.79713C3.12881 21.1325 3.39771 20.868 3.39771 20.5415C3.39771 20.215 3.12881 19.9505 2.79713 19.9505H0.600586C0.268902 19.9505 0 20.215 0 20.5415C0 20.868 0.268902 21.1325 0.600586 21.1325Z" fill="white"/>
<path d="M2.20215 26.3385H0.600586C0.268902 26.3385 0 26.603 0 26.9295C0 27.256 0.268902 27.5205 0.600586 27.5205H2.20215C2.53383 27.5205 2.80273 27.256 2.80273 26.9295C2.80273 26.603 2.53383 26.3385 2.20215 26.3385Z" fill="white"/>
<path d="M9.26768 21.3337H7.12575C6.79407 21.3337 6.52517 21.5982 6.52517 21.9247C6.52517 22.2512 6.79407 22.5157 7.12575 22.5157H9.26768C9.59937 22.5157 9.86827 22.2512 9.86827 21.9247C9.86827 21.5982 9.59937 21.3337 9.26768 21.3337Z" fill="white"/>
<path d="M36.5163 20.5492C39.2991 18.7044 41 15.5955 41 12.2682C41 10.6868 40.6344 9.1736 39.9133 7.77086C39.7637 7.47961 39.4023 7.3629 39.1064 7.51018C38.8104 7.65746 38.6917 8.01309 38.8415 8.30426C39.4767 9.54019 39.7988 10.8739 39.7988 12.2682C39.7988 15.2606 38.2378 18.0525 35.6958 19.6656L32.1992 15.9003C31.793 15.4628 31.2146 15.212 30.6125 15.212H22.436C22.0952 14.2689 21.9223 13.2805 21.9223 12.2682C21.9223 7.41822 25.932 3.47255 30.8606 3.47255C33.4172 3.47255 35.8567 4.55402 37.5538 6.43966C37.7735 6.68395 38.1531 6.7068 38.4015 6.49025C38.6499 6.27386 38.6729 5.90034 38.453 5.65598C37.5707 4.67553 36.5109 3.88752 35.3429 3.3207V1.31906C35.3429 0.591721 34.7416 0 34.0025 0H27.7188C26.9797 0 26.3784 0.591721 26.3784 1.31906V3.32015C23.0296 4.95118 20.7212 8.3491 20.7212 12.2682C20.7212 13.2756 20.8727 14.2622 21.171 15.212H5.85595C5.08985 15.212 4.46051 15.7948 4.39909 16.5335H2.20215C1.87046 16.5335 1.60156 16.798 1.60156 17.1245C1.60156 17.451 1.87046 17.7155 2.20215 17.7155H4.39301V23.428H0.600586C0.268902 23.428 0 23.6925 0 24.019C0 24.3455 0.268902 24.61 0.600586 24.61H4.39301V26.3387C4.06396 26.3417 3.79803 26.6049 3.79803 26.9294C3.79803 27.2539 4.06388 27.5171 4.39301 27.5201V31.7007C4.39301 32.3212 4.90599 32.8259 5.53644 32.8259H7.15234V33.2373H5.27851C4.94683 33.2373 4.67792 33.5018 4.67792 33.8283C4.67792 34.1548 4.94683 34.4193 5.27851 34.4193H7.75292C8.08461 34.4193 8.35351 34.1548 8.35351 33.8283V32.8259H8.90148C9.09207 35.1587 11.0808 37 13.4997 37C14.2979 37 15.0858 36.795 15.7783 36.4073C16.0666 36.2459 16.1672 35.885 16.0032 35.6014C15.8392 35.3176 15.4726 35.2187 15.1842 35.3799C14.6725 35.6665 14.0899 35.818 13.4997 35.818C11.6176 35.818 10.0863 34.3112 10.0863 32.4591C10.0863 30.6069 11.6176 29.1001 13.4997 29.1001C15.3817 29.1001 16.913 30.6069 16.913 32.4591C16.913 32.964 16.8018 33.4497 16.5823 33.9025C16.4396 34.1972 16.5666 34.5499 16.866 34.6903C17.1655 34.8307 17.5238 34.7058 17.6666 34.4112C17.91 33.9089 18.0532 33.3769 18.0977 32.8259H28.8965C29.0871 35.1587 31.0758 37 33.4947 37C35.9135 37 37.9022 35.1587 38.0928 32.8259H39.3292C40.2505 32.8259 41 32.0883 41 31.1817V26.1959C41 25.6679 40.8007 25.1624 40.4387 24.7726L36.5163 20.5492ZM27.5795 1.31906C27.5795 1.24349 27.642 1.18202 27.7188 1.18202H34.0025C34.0792 1.18202 34.1417 1.24349 34.1417 1.31906V2.82937C33.0958 2.47689 31.9884 2.2906 30.8606 2.2906C29.7128 2.2906 28.6091 2.47957 27.5795 2.82701L27.5795 1.31906ZM31.3125 16.6978L37.5626 23.428H33.0825C32.7508 23.428 32.4819 23.6925 32.4819 24.019C32.4819 24.3455 32.7508 24.61 33.0825 24.61H38.6604L39.552 25.5702C39.9156 25.9617 39.7628 26.3865 39.7988 26.8374H39.3358C39.0041 26.8374 38.7352 27.1019 38.7352 27.4284C38.7352 27.7548 39.0041 28.0194 39.3358 28.0194H39.7988V28.8939H36.3474C35.5617 28.2838 34.571 27.9183 33.4948 27.9183C32.4185 27.9183 31.4279 28.2838 30.6421 28.8939H24.0984V16.3941H26.6887V23.4206C26.6887 24.0765 27.2309 24.6101 27.8974 24.6101H30.6815C31.0132 24.6101 31.282 24.3456 31.282 24.0191C31.282 23.6926 31.0132 23.4281 30.6815 23.4281H27.8974C27.8932 23.4281 27.8898 23.4247 27.8898 23.4206V16.3941H30.6127C30.8781 16.3941 31.1333 16.5048 31.3125 16.6978ZM28.9561 31.644H24.0982V30.0759H29.569C29.2718 30.5483 29.0608 31.0781 28.9561 31.644ZM17.4252 30.0759H22.8971V31.644H18.0382C17.9334 31.0781 17.7225 30.5483 17.4252 30.0759ZM5.59418 30.0759H9.5739C9.27665 30.5483 9.06572 31.0781 8.96098 31.644H5.59418V30.0759ZM10.6469 28.8939H5.59418V27.5205H8.19672C8.5284 27.5205 8.7973 27.256 8.7973 26.9295C8.7973 26.603 8.5284 26.3385 8.19672 26.3385H5.59418V24.61H8.19672C8.5284 24.61 8.7973 24.3455 8.7973 24.019C8.7973 23.6925 8.5284 23.428 8.19672 23.428H5.59418V16.6517C5.59418 16.5096 5.71157 16.394 5.85595 16.394H22.8971V28.8938H16.3523C15.5665 28.2837 14.5759 27.9182 13.4997 27.9182C12.4234 27.9182 11.4328 28.2838 10.6469 28.8939ZM33.4947 35.8181C31.6125 35.8181 30.0813 34.3114 30.0813 32.4592C30.0813 30.6071 31.6125 29.1003 33.4947 29.1003C35.3768 29.1003 36.908 30.6071 36.908 32.4592C36.908 34.3114 35.3768 35.8181 33.4947 35.8181ZM39.3291 31.644H38.0332C37.9284 31.0781 37.7175 30.5483 37.4203 30.0759H39.7988V31.1818C39.7988 31.4367 39.5881 31.644 39.3291 31.644Z" fill="white"/>
</svg>
