<svg width="70" height="13" viewBox="0 0 70 13" fill="none" xmlns="http://www.w3.org/2000/svg">
<path d="M6.5 0L8.4103 3.87069L12.6819 4.49139L9.59093 7.50431L10.3206 11.7586L6.5 9.75L2.6794 11.7586L3.40907 7.50431L0.318133 4.49139L4.5897 3.87069L6.5 0Z" fill="#F7C600"/>
<path d="M20.5 0L22.4103 3.87069L26.6819 4.49139L23.5909 7.50431L24.3206 11.7586L20.5 9.75L16.6794 11.7586L17.4091 7.50431L14.3181 4.49139L18.5897 3.87069L20.5 0Z" fill="#F7C600"/>
<path d="M35.5 0L37.4103 3.87069L41.6819 4.49139L38.5909 7.50431L39.3206 11.7586L35.5 9.75L31.6794 11.7586L32.4091 7.50431L29.3181 4.49139L33.5897 3.87069L35.5 0Z" fill="#F7C600"/>
<path d="M49.5 0L51.4103 3.87069L55.6819 4.49139L52.5909 7.50431L53.3206 11.7586L49.5 9.75L45.6794 11.7586L46.4091 7.50431L43.3181 4.49139L47.5897 3.87069L49.5 0Z" fill="#F7C600"/>
<path d="M63.5 0L65.4103 3.87069L69.6819 4.49139L66.5909 7.50431L67.3206 11.7586L63.5 9.75L59.6794 11.7586L60.4091 7.50431L57.3181 4.49139L61.5897 3.87069L63.5 0Z" fill="#F7C600"/>
</svg>
