<svg width="35" height="48" viewBox="0 0 35 48" fill="none" xmlns="http://www.w3.org/2000/svg">
<path d="M34.1221 15.057L31.8696 12.3228C31.5603 11.9475 31.3721 11.4934 31.326 11.0096L30.9863 7.48265C30.8099 5.65015 29.3524 4.1919 27.5208 4.01539L23.9956 3.67591C23.512 3.6294 23.0582 3.44117 22.683 3.13209L19.9502 0.878077C18.5304 -0.292692 16.4693 -0.292692 15.0495 0.878077L12.3167 3.13209C11.9419 3.44117 11.488 3.6294 11.0042 3.67591L7.47895 4.01539C5.64735 4.1919 4.19019 5.65015 4.0134 7.48265L3.67409 11.0096C3.62761 11.4934 3.43947 11.9475 3.13054 12.3228L0.877642 15.057C-0.292547 16.4775 -0.292547 18.5396 0.877642 19.9601L3.13054 22.6942C3.43947 23.0696 3.62761 23.5237 3.67409 24.0075L4.0134 27.5344C4.18982 29.3669 5.64735 30.8248 7.47895 31.0017L9.63375 31.2093L4.51412 43.4491C4.3754 43.7824 4.43799 44.1574 4.67774 44.4276C4.91749 44.6975 5.28168 44.8045 5.62795 44.706L10.0697 43.4513C10.0891 43.4458 10.1078 43.4543 10.1165 43.47L12.3409 47.5166C12.5063 47.818 12.8156 47.9996 13.156 47.9996C13.1721 47.9996 13.1882 47.9993 13.2047 47.9985C13.5645 47.9802 13.8756 47.7627 14.018 47.4272L19.4232 34.5037C19.6065 34.3983 19.783 34.2771 19.9506 34.139L22.6834 31.8853C23.0293 31.5997 23.4432 31.4192 23.885 31.3562L28.7806 43.0598L25.3162 42.0813C24.6573 41.8957 23.9674 42.1846 23.6369 42.7841L21.9023 45.9397L19.604 40.4447C19.4521 40.0818 19.0355 39.9112 18.6728 40.0628C18.3104 40.2144 18.1395 40.6315 18.2914 40.9941L20.9835 47.4309C21.1244 47.7627 21.4352 47.9802 21.7954 47.9985C21.8118 47.9993 21.828 48 21.8441 48C22.1845 48 22.4938 47.818 22.6592 47.5166L24.8832 43.4707C24.8923 43.4543 24.9114 43.4466 24.93 43.4513L29.371 44.706C29.718 44.8041 30.0826 44.6975 30.322 44.4276C30.5617 44.1574 30.6243 43.7827 30.4852 43.4484L25.366 31.209L27.5208 31.0013C29.3524 30.8248 30.8099 29.3669 30.9863 27.5344L31.326 24.0071C31.3721 23.5233 31.5603 23.0696 31.8696 22.6942L34.1221 19.9601C35.2926 18.5396 35.2926 16.4775 34.1221 15.057ZM13.0978 45.9397L11.3629 42.7834C11.0327 42.1842 10.342 41.8953 9.68353 42.0813L6.21945 43.0595L11.1147 31.3562C11.5569 31.4192 11.9708 31.5997 12.3167 31.885L15.0495 34.139C15.7596 34.7246 16.6296 35.0172 17.5 35.0172C17.556 35.0172 17.6117 35.0157 17.6677 35.0131L13.0978 45.9397ZM33.0244 19.0549L30.7718 21.789C30.2814 22.3837 29.9834 23.1037 29.9095 23.8709L29.5702 27.3978C29.4589 28.5536 28.5398 29.4731 27.3846 29.5845L24.288 29.8829C24.2759 29.8836 24.2635 29.8847 24.2514 29.8866L23.8594 29.9243C23.0922 29.9983 22.3726 30.2964 21.7782 30.7867L19.0454 33.0404C18.1501 33.779 16.85 33.779 15.9547 33.0404L13.2219 30.7867C12.6275 30.2964 11.9079 29.9979 11.1407 29.9243L10.7468 29.8862C10.7359 29.8847 10.7252 29.884 10.7143 29.8833L7.61548 29.5845C6.46029 29.4731 5.5412 28.5536 5.42993 27.3978L5.09062 23.8712C5.01668 23.1037 4.71873 22.3837 4.22826 21.789L1.97572 19.0549C1.23745 18.1587 1.23745 16.858 1.97572 15.9622L4.22826 13.2281C4.71873 12.6334 5.01668 11.9134 5.09062 11.1458L5.42993 7.61888C5.5412 6.46313 6.46029 5.54358 7.61548 5.43225L11.1407 5.09277C11.9079 5.0188 12.6275 4.72071 13.2219 4.23035L15.9547 1.9767C16.4023 1.60757 16.9514 1.42263 17.5 1.42263C18.0487 1.42263 18.5978 1.6072 19.0454 1.9767L21.7782 4.23035C22.3726 4.72071 23.0922 5.01917 23.8594 5.09277L27.3846 5.43225C28.5398 5.54358 29.4589 6.46313 29.5702 7.61888L29.9095 11.1458C29.9834 11.9134 30.2814 12.6334 30.7718 13.2281L33.0244 15.9622C33.7623 16.8583 33.7623 18.1587 33.0244 19.0549Z" fill="white"/>
<path d="M17.5 6.38952C17.0249 6.38952 16.5469 6.41955 16.0784 6.47961C15.6889 6.52941 15.4133 6.8861 15.4631 7.27575C15.5129 7.66576 15.8698 7.94115 16.2588 7.89171C16.6673 7.83934 17.085 7.81297 17.5 7.81297C22.8437 7.81297 27.191 12.1624 27.191 17.5087C27.191 22.855 22.8433 27.2041 17.5 27.2041C12.1564 27.2041 7.8091 22.8546 7.8091 17.5084C7.8091 13.695 10.0565 10.2215 13.5345 8.65892C13.8928 8.49815 14.0532 8.07664 13.8921 7.71813C13.7311 7.35924 13.3098 7.19921 12.9518 7.36034C8.96319 9.1522 6.38635 13.1355 6.38635 17.5084C6.38635 23.6398 11.372 28.6276 17.5 28.6276C23.6281 28.6276 28.6137 23.6398 28.6137 17.5084C28.6137 11.3773 23.6281 6.38952 17.5 6.38952Z" fill="white"/>
<path d="M10.4346 16.684C9.58653 17.5325 9.58653 18.9135 10.4346 19.762L13.5418 22.8712C13.9529 23.2821 14.499 23.5084 15.0803 23.5084C15.6611 23.5084 16.2076 23.2821 16.6187 22.8712L23.4016 16.0846C24.2497 15.2357 24.2497 13.8551 23.4016 13.0062C22.5535 12.1577 21.1732 12.1577 20.3247 13.0062L15.0803 18.2536L13.5111 16.684C12.663 15.8355 11.2827 15.8355 10.4346 16.684ZM15.0803 19.9722C15.2688 19.9722 15.4496 19.8972 15.5832 19.7635L21.3309 14.0129C21.6245 13.7192 22.1018 13.7196 22.3954 14.0129C22.6889 14.3066 22.6889 14.7845 22.3954 15.0778L15.6125 21.8645C15.4704 22.0065 15.2812 22.0849 15.0803 22.0849C14.8789 22.0849 14.6901 22.0065 14.5481 21.8645L11.4405 18.7557C11.1473 18.462 11.1473 17.9841 11.4405 17.6908C11.5872 17.5439 11.7801 17.4703 11.973 17.4703C12.1656 17.4703 12.3585 17.5439 12.5049 17.6904L14.577 19.7635C14.7106 19.8972 14.8914 19.9722 15.0803 19.9722Z" fill="white"/>
</svg>
