<svg width="17" height="22" viewBox="0 0 17 22" fill="none" xmlns="http://www.w3.org/2000/svg">
<path d="M16.9923 20.0053L15.7888 7.35533C15.6984 6.40246 14.8522 5.68333 13.8206 5.68333C13.5837 5.68333 13.3908 5.86208 13.3908 6.08208V8.05429C13.3908 8.24954 13.2318 8.42004 13.0218 8.43242C12.7916 8.44617 12.6004 8.27704 12.6004 8.06667V3.80417C12.6004 1.70638 10.7611 0 8.5 0C6.23885 0 4.39959 1.70638 4.39959 3.80417V5.68333H3.17935C2.14783 5.68333 1.30157 6.40246 1.21116 7.35533L0.00771506 20.0053C-0.09356 21.0744 0.815099 22 1.9764 22H15.0236C16.185 22 17.0936 21.0743 16.9923 20.0053ZM6.22749 19.5708H3.36214C3.14388 19.5708 2.96692 19.4067 2.96692 19.2042C2.96692 19.0017 3.14388 18.8375 3.36214 18.8375H6.22749C6.44575 18.8375 6.62271 19.0017 6.62271 19.2042C6.62271 19.4067 6.44575 19.5708 6.22749 19.5708ZM6.22749 17.7375H3.36214C3.14388 17.7375 2.96692 17.5733 2.96692 17.3708C2.96692 17.1683 3.14388 17.0042 3.36214 17.0042H6.22749C6.44575 17.0042 6.62271 17.1683 6.62271 17.3708C6.62271 17.5733 6.44575 17.7375 6.22749 17.7375ZM11.81 5.68333H6.41027C6.17314 5.68333 5.98047 5.86208 5.98047 6.08208V8.05429C5.98047 8.24954 5.8214 8.42004 5.61144 8.43242C5.38122 8.44617 5.19003 8.27704 5.19003 8.06667V3.80417C5.19003 2.11108 6.67507 0.733333 8.5 0.733333C10.3249 0.733333 11.81 2.11108 11.81 3.80417V5.68333Z" fill="white"/>
</svg>
