<svg width="31" height="40" viewBox="0 0 31 40" fill="none" xmlns="http://www.w3.org/2000/svg">
<path d="M30.9999 33.1072C30.9096 27.671 25.2638 26.0649 21.1414 24.8921C20.6604 24.7553 20.1978 24.6237 19.7643 24.4923V22.2497C20.6071 21.7296 21.3456 21.0603 21.9414 20.2796H24.4525C25.6814 20.2796 26.6812 19.2953 26.6812 18.0855V15.4296C26.8302 15.0877 26.9129 14.7115 26.9129 14.3164V13.4904C26.9129 13.0957 26.8302 12.7197 26.6812 12.378V11.0079C26.6812 4.93814 21.6654 0 15.5 0C9.33584 0 4.32101 4.93814 4.32101 11.0079V12.3389C4.32101 12.3493 4.3222 12.3594 4.3226 12.3698C4.17134 12.7137 4.08706 13.0925 4.08706 13.4904V14.3165C4.08706 15.878 5.37646 17.1483 6.96131 17.1483H7.61712C8.07136 19.2927 9.40861 21.1216 11.2357 22.2493V24.4923C10.8021 24.6237 10.3396 24.7553 9.85864 24.8921C5.73619 26.0649 0.090388 27.671 7.93138e-05 33.1072C-4.35959e-08 33.1115 0 33.1157 0 33.12V39.2187C0 39.6502 0.355362 40 0.793574 40H3.14636C3.58457 40 3.93993 39.6502 3.93993 39.2187C3.93993 38.7873 3.58457 38.4375 3.14636 38.4375H1.58707V33.1265C1.62048 31.2298 2.50547 29.808 4.37204 28.6521C5.60374 27.8894 7.10955 27.346 8.59385 26.8914L10.5112 30.569C10.7249 30.979 11.2721 31.1182 11.6609 30.86L12.5158 30.2922L13.2498 33.0081L11.9922 38.4374H10.2724C9.8342 38.4374 9.47884 38.7872 9.47884 39.2187C9.47884 39.6502 9.8342 39.9999 10.2724 39.9999H30.2064C30.6446 39.9999 31 39.6502 31 39.2187V33.1199C31 33.1157 31 33.1115 30.9999 33.1072ZM20.7008 26.3932C20.7531 26.408 20.8062 26.4232 20.8589 26.4382L19.4871 29.0721L16.9198 27.3678L19.095 25.9234C19.6004 26.0799 20.1378 26.233 20.7008 26.3932ZM15.5006 28.3103L17.0918 29.3667L16.3228 32.2125H14.6772L13.9084 29.3675L15.5006 28.3103ZM15.5004 26.4257L12.8227 24.6481V23.0034C13.6608 23.2952 14.5616 23.4552 15.4999 23.4552C16.4382 23.4552 17.3391 23.2957 18.1771 23.0039V24.6481L15.5004 26.4257ZM21.9652 11.1508C21.9543 11.144 21.9435 11.1372 21.9326 11.1304C20.3043 10.11 18.8979 9.22863 16.6943 9.84934C16.6739 9.85512 16.6535 9.86168 16.6336 9.86902C16.1664 10.0418 15.7416 10.2028 15.3307 10.3585C12.8212 11.3095 11.451 11.8289 9.03476 11.762V11.1364C9.03476 7.62667 11.935 4.77135 15.4999 4.77135C19.0648 4.77135 21.9651 7.62667 21.9651 11.1364L21.9652 11.1508ZM25.0941 18.0855C25.0941 18.4338 24.8063 18.7171 24.4525 18.7171H22.8711C23.0944 18.2187 23.2674 17.6938 23.383 17.1483H24.0388C24.4114 17.1483 24.7671 17.0773 25.0941 16.9496V18.0855H25.0941ZM25.3258 14.3164C25.3258 15.0163 24.7485 15.5858 24.0387 15.5858H23.5516C23.5518 15.5664 23.5524 12.2232 23.5524 12.2232H24.0388C24.7485 12.2232 25.3259 12.7916 25.3259 13.4904L25.3258 14.3164ZM6.96131 15.5858C6.25161 15.5858 5.67421 15.0164 5.67421 14.3165V13.4904C5.67421 12.7917 6.25153 12.2233 6.96131 12.2233H7.44769C7.44769 12.2233 7.44832 15.5665 7.44848 15.5858H6.96131ZM7.46253 10.6607H6.96123C6.59023 10.6607 6.2359 10.731 5.91006 10.8575C5.99204 5.71846 10.2621 1.56251 15.5 1.56251C20.7394 1.56251 25.0107 5.71893 25.0921 10.8584C24.7657 10.7313 24.4105 10.6607 24.0387 10.6607H23.5374C23.2866 6.51003 19.7778 3.20884 15.5 3.20884C11.2222 3.20884 7.7133 6.5101 7.46253 10.6607ZM9.08253 16.2878C9.08245 16.287 9.08229 16.2862 9.08221 16.2855C9.05214 16.0368 9.03484 15.7843 9.03484 15.5278V13.3244C11.7499 13.3896 13.3695 12.7761 15.9009 11.8168C16.2996 11.6657 16.7117 11.5095 17.1606 11.3433C18.6597 10.9314 19.5222 11.4721 21.0803 12.4486C21.3507 12.618 21.6473 12.8037 21.9652 12.9944V15.5278C21.9652 16.6896 21.6458 17.7787 21.0914 18.7172H15.5C15.0618 18.7172 14.7064 19.0669 14.7064 19.4984C14.7064 19.9299 15.0618 20.2797 15.5 20.2797H19.7951C18.6522 21.2821 17.1475 21.8928 15.5 21.8928C12.1964 21.8927 9.46543 19.4402 9.08253 16.2878ZM11.5148 29.0722L10.1415 26.4381C10.194 26.4232 10.247 26.408 10.2992 26.3932C10.8622 26.233 11.3996 26.0799 11.9051 25.9233L14.0813 27.368L11.5148 29.0722ZM13.6202 38.4375L14.7002 33.775H16.3001L17.3817 38.4375H13.6202ZM19.0097 38.4375L17.7502 33.008L18.4845 30.2911L19.3415 30.86C19.7305 31.1182 20.2776 30.9789 20.4913 30.5688L22.4065 26.8915C23.8907 27.3461 25.3964 27.8895 26.628 28.6521C28.4945 29.8079 29.3796 31.2298 29.413 33.1265V38.4375H19.0097Z" fill="white"/>
<path d="M26.279 34.531H22.2797C21.8415 34.531 21.4861 34.8808 21.4861 35.3122C21.4861 35.7437 21.8415 36.0935 22.2797 36.0935H26.279C26.7172 36.0935 27.0726 35.7437 27.0726 35.3122C27.0726 34.8808 26.7173 34.531 26.279 34.531Z" fill="white"/>
<path d="M6.70944 38.4375C6.27123 38.4375 5.91587 38.7873 5.91587 39.2187C5.91587 39.6502 6.27123 40 6.70944 40H6.71166C7.14987 40 7.50404 39.6502 7.50404 39.2187C7.50404 38.7873 7.14765 38.4375 6.70944 38.4375Z" fill="white"/>
</svg>
