<svg width="215" height="63" viewBox="0 0 215 63" fill="none" xmlns="http://www.w3.org/2000/svg">
<path d="M107.6 25.384C107.536 25.768 107.352 26.136 107.048 26.488C106.744 26.84 106.352 27.152 105.872 27.424C105.408 27.68 104.872 27.88 104.264 28.024C103.672 28.184 103.04 28.264 102.368 28.264H97.544C96.872 28.264 96.256 28.184 95.696 28.024C95.136 27.88 94.648 27.68 94.232 27.424C93.832 27.152 93.528 26.84 93.32 26.488C93.128 26.136 93.056 25.768 93.104 25.384L93.392 23.104H97.832L97.568 24.88C97.536 25.152 97.664 25.376 97.952 25.552C98.256 25.728 98.64 25.816 99.104 25.816H101.528C101.992 25.816 102.384 25.728 102.704 25.552C103.024 25.376 103.208 25.152 103.256 24.88L103.808 20.776C103.856 20.52 103.744 20.288 103.472 20.08C103.2 19.872 102.832 19.768 102.368 19.768H99.128C98.472 19.768 97.864 19.696 97.304 19.552C96.744 19.392 96.256 19.184 95.84 18.928C95.44 18.672 95.136 18.376 94.928 18.04C94.72 17.688 94.64 17.312 94.688 16.912L95.24 13.432C95.304 13.032 95.488 12.656 95.792 12.304C96.096 11.952 96.48 11.648 96.944 11.392C97.424 11.12 97.968 10.912 98.576 10.768C99.184 10.608 99.816 10.528 100.472 10.528H104.456C105.128 10.528 105.736 10.608 106.28 10.768C106.84 10.912 107.312 11.12 107.696 11.392C108.08 11.648 108.368 11.952 108.56 12.304C108.768 12.656 108.864 13.032 108.848 13.432C108.816 14.152 108.432 14.624 107.696 14.848C106.96 15.072 105.824 15.032 104.288 14.728L104.408 13.96C104.44 13.672 104.312 13.44 104.024 13.264C103.736 13.088 103.368 13 102.92 13H101.312C100.864 13 100.464 13.088 100.112 13.264C99.776 13.44 99.592 13.672 99.56 13.96L99.224 16.168C99.176 16.44 99.288 16.664 99.56 16.84C99.848 17.016 100.224 17.104 100.688 17.104H103.928C104.6 17.104 105.216 17.184 105.776 17.344C106.336 17.488 106.816 17.696 107.216 17.968C107.616 18.24 107.912 18.56 108.104 18.928C108.312 19.28 108.392 19.656 108.344 20.056L107.6 25.384ZM119.168 14.296C119.824 14.296 120.424 14.376 120.968 14.536C121.528 14.68 122.008 14.888 122.408 15.16C122.808 15.416 123.104 15.72 123.296 16.072C123.504 16.424 123.584 16.8 123.536 17.2L122.024 28.024H117.584L119.096 17.728C119.112 17.456 118.976 17.224 118.688 17.032C118.4 16.824 118.032 16.72 117.584 16.72H116.432C115.968 16.72 115.56 16.824 115.208 17.032C114.856 17.224 114.672 17.456 114.656 17.728L113.168 28.024H108.752L111.176 10.624C111.816 10.368 112.4 10.264 112.928 10.312C113.472 10.344 113.928 10.496 114.296 10.768C114.664 11.04 114.928 11.416 115.088 11.896C115.264 12.36 115.312 12.896 115.232 13.504L115.04 14.968C115.968 14.52 116.976 14.296 118.064 14.296H119.168ZM125.484 14.536C126.156 14.376 126.764 14.296 127.308 14.296C127.852 14.296 128.3 14.392 128.652 14.584C129.02 14.776 129.276 15.08 129.42 15.496C129.58 15.896 129.604 16.432 129.492 17.104L127.98 28.024H123.564L125.484 14.536ZM130.428 10.624L130.044 13.288H125.676L125.988 10.624H130.428ZM139.933 14.296C140.589 14.296 141.189 14.376 141.733 14.536C142.293 14.68 142.773 14.888 143.173 15.16C143.573 15.416 143.869 15.72 144.061 16.072C144.269 16.424 144.349 16.8 144.301 17.2L143.149 25.384C143.101 25.768 142.925 26.136 142.621 26.488C142.317 26.84 141.925 27.152 141.445 27.424C140.981 27.68 140.453 27.88 139.861 28.024C139.269 28.184 138.653 28.264 138.013 28.264H136.813C136.253 28.264 135.733 28.208 135.253 28.096C134.789 27.984 134.381 27.832 134.029 27.64L133.405 31.912C132.845 32.2 132.301 32.336 131.773 32.32C131.261 32.304 130.805 32.176 130.405 31.936C130.021 31.696 129.725 31.36 129.517 30.928C129.309 30.512 129.237 30.04 129.301 29.512L131.437 14.536C132.109 14.44 132.717 14.376 133.261 14.344C133.805 14.296 134.269 14.288 134.653 14.32C135.037 14.352 135.325 14.424 135.517 14.536C135.725 14.632 135.821 14.776 135.805 14.968C136.733 14.52 137.741 14.296 138.829 14.296H139.933ZM139.861 17.728C139.877 17.456 139.741 17.224 139.453 17.032C139.165 16.824 138.797 16.72 138.349 16.72H137.197C136.733 16.72 136.325 16.824 135.973 17.032C135.621 17.224 135.437 17.456 135.421 17.728L134.389 24.88C134.357 25.152 134.485 25.376 134.773 25.552C135.061 25.728 135.437 25.816 135.901 25.816H137.053C137.533 25.816 137.933 25.728 138.253 25.552C138.589 25.376 138.781 25.152 138.829 24.88L139.861 17.728ZM153.714 25.6L153.378 27.808C153.138 27.888 152.882 27.944 152.61 27.976C152.354 27.992 152.09 28 151.818 28H150.762C150.09 28 149.474 27.928 148.914 27.784C148.354 27.624 147.874 27.416 147.474 27.16C147.09 26.888 146.794 26.576 146.586 26.224C146.378 25.856 146.29 25.472 146.322 25.072L147.546 16.936H145.89L146.25 14.536H147.834L148.026 13.432C148.09 12.92 148.282 12.456 148.602 12.04C148.938 11.624 149.338 11.288 149.802 11.032C150.266 10.76 150.762 10.576 151.29 10.48C151.834 10.384 152.346 10.408 152.826 10.552L152.202 14.536H153.858L153.498 16.936H151.866L150.81 24.64C150.762 24.896 150.874 25.12 151.146 25.312C151.434 25.504 151.81 25.6 152.274 25.6H153.498H153.714ZM165.316 14.296C165.972 14.296 166.572 14.376 167.116 14.536C167.676 14.68 168.156 14.888 168.556 15.16C168.956 15.416 169.252 15.72 169.444 16.072C169.652 16.424 169.732 16.8 169.684 17.2L168.172 28.024H163.732L165.244 17.728C165.26 17.456 165.124 17.224 164.836 17.032C164.548 16.824 164.18 16.72 163.732 16.72H162.58C162.116 16.72 161.708 16.824 161.356 17.032C161.004 17.224 160.82 17.456 160.804 17.728L159.316 28.024H154.9L157.324 10.624C157.964 10.368 158.548 10.264 159.076 10.312C159.62 10.344 160.076 10.496 160.444 10.768C160.812 11.04 161.076 11.416 161.236 11.896C161.412 12.36 161.46 12.896 161.38 13.504L161.188 14.968C162.116 14.52 163.124 14.296 164.212 14.296H165.316ZM184.881 14.536L183.009 28C182.401 28.048 181.825 28.088 181.281 28.12C180.753 28.168 180.289 28.184 179.889 28.168C179.489 28.152 179.177 28.104 178.953 28.024C178.729 27.944 178.633 27.816 178.665 27.64C178.169 27.832 177.673 27.984 177.177 28.096C176.681 28.208 176.153 28.264 175.593 28.264H174.513C173.841 28.264 173.225 28.184 172.665 28.024C172.105 27.88 171.617 27.68 171.201 27.424C170.801 27.152 170.497 26.84 170.289 26.488C170.097 26.136 170.025 25.768 170.073 25.384L171.633 14.536C172.225 14.296 172.777 14.184 173.289 14.2C173.817 14.216 174.265 14.336 174.633 14.56C175.001 14.768 175.273 15.08 175.449 15.496C175.641 15.912 175.705 16.392 175.641 16.936L174.537 24.88C174.505 25.152 174.633 25.376 174.921 25.552C175.225 25.728 175.609 25.816 176.073 25.816H177.249C177.729 25.816 178.129 25.728 178.449 25.552C178.785 25.376 178.977 25.152 179.025 24.88L180.465 14.536H184.881ZM194.941 14.296C195.597 14.296 196.197 14.376 196.741 14.536C197.301 14.68 197.781 14.888 198.181 15.16C198.581 15.416 198.877 15.72 199.069 16.072C199.277 16.424 199.357 16.8 199.309 17.2L198.157 25.384C198.109 25.768 197.933 26.136 197.629 26.488C197.325 26.84 196.933 27.152 196.453 27.424C195.989 27.68 195.461 27.88 194.869 28.024C194.277 28.184 193.661 28.264 193.021 28.264H189.325C188.653 28.264 188.037 28.184 187.477 28.024C186.917 27.88 186.429 27.68 186.013 27.424C185.613 27.152 185.309 26.84 185.101 26.488C184.909 26.136 184.837 25.768 184.885 25.384L185.989 17.2C186.037 16.8 186.213 16.424 186.517 16.072C186.837 15.72 187.237 15.416 187.717 15.16C188.197 14.888 188.741 14.68 189.349 14.536C189.957 14.376 190.597 14.296 191.269 14.296H194.941ZM194.869 17.728C194.885 17.456 194.749 17.224 194.461 17.032C194.173 16.824 193.805 16.72 193.357 16.72H192.133C191.701 16.72 191.309 16.824 190.957 17.032C190.605 17.224 190.421 17.456 190.405 17.728L189.349 24.88C189.317 25.152 189.445 25.376 189.733 25.552C190.037 25.728 190.421 25.816 190.885 25.816H192.061C192.541 25.816 192.941 25.728 193.261 25.552C193.597 25.376 193.789 25.152 193.837 24.88L194.869 17.728ZM214.098 17.2C213.97 17.952 213.53 18.392 212.778 18.52C212.042 18.632 210.986 18.4 209.61 17.824L209.682 17.728C209.698 17.456 209.554 17.224 209.25 17.032C208.962 16.824 208.602 16.72 208.17 16.72H207.018C206.554 16.72 206.146 16.824 205.794 17.032C205.442 17.224 205.258 17.456 205.242 17.728L204.21 24.64C204.178 24.896 204.306 25.12 204.594 25.312C204.882 25.504 205.258 25.6 205.722 25.6H206.874C207.306 25.6 207.706 25.504 208.074 25.312C208.442 25.12 208.658 24.896 208.722 24.64L208.794 23.488H213.186L212.97 25.072C212.922 25.472 212.746 25.856 212.442 26.224C212.138 26.576 211.746 26.888 211.266 27.16C210.802 27.416 210.266 27.624 209.658 27.784C209.05 27.928 208.41 28 207.738 28H204.162C203.49 28 202.874 27.928 202.314 27.784C201.754 27.624 201.274 27.416 200.874 27.16C200.474 26.888 200.17 26.576 199.962 26.224C199.754 25.856 199.674 25.472 199.722 25.072L200.802 17.2C200.85 16.8 201.026 16.424 201.33 16.072C201.634 15.72 202.026 15.416 202.506 15.16C202.986 14.888 203.53 14.68 204.138 14.536C204.762 14.376 205.41 14.296 206.082 14.296H209.682C210.354 14.296 210.978 14.376 211.554 14.536C212.13 14.68 212.618 14.888 213.018 15.16C213.434 15.416 213.738 15.72 213.93 16.072C214.138 16.424 214.194 16.8 214.098 17.2ZM103.16 38.296C103.816 38.296 104.416 38.376 104.96 38.536C105.52 38.68 106 38.888 106.4 39.16C106.8 39.416 107.096 39.72 107.288 40.072C107.496 40.424 107.576 40.8 107.528 41.2L106.04 52C105.368 52.224 104.76 52.328 104.216 52.312C103.688 52.312 103.24 52.208 102.872 52C102.504 51.792 102.232 51.488 102.056 51.088C101.896 50.672 101.864 50.176 101.96 49.6L103.088 41.728C103.104 41.456 102.968 41.224 102.68 41.032C102.392 40.824 102.024 40.72 101.576 40.72H100.424C99.96 40.72 99.552 40.824 99.2 41.032C98.848 41.224 98.664 41.456 98.648 41.728L97.256 52H92.744L94.664 38.536C95.208 38.472 95.728 38.416 96.224 38.368C96.736 38.304 97.192 38.28 97.592 38.296C97.992 38.312 98.32 38.376 98.576 38.488C98.832 38.584 98.984 38.744 99.032 38.968C99.96 38.52 100.968 38.296 102.056 38.296H103.16ZM117.973 38.296C118.629 38.296 119.229 38.376 119.773 38.536C120.333 38.68 120.813 38.888 121.213 39.16C121.613 39.416 121.909 39.72 122.101 40.072C122.309 40.424 122.389 40.8 122.341 41.2L120.829 52.024H116.389L117.901 41.728C117.917 41.456 117.781 41.224 117.493 41.032C117.205 40.824 116.837 40.72 116.389 40.72H115.237C114.773 40.72 114.365 40.824 114.013 41.032C113.661 41.224 113.477 41.456 113.461 41.728L111.973 52.024H107.557L109.98 34.624C110.621 34.368 111.205 34.264 111.733 34.312C112.277 34.344 112.733 34.496 113.101 34.768C113.469 35.04 113.733 35.416 113.893 35.896C114.069 36.36 114.117 36.896 114.037 37.504L113.845 38.968C114.773 38.52 115.781 38.296 116.869 38.296H117.973ZM136.049 52C132.993 52.416 131.537 52.296 131.681 51.64C131.185 51.832 130.681 51.984 130.169 52.096C129.673 52.208 129.169 52.264 128.657 52.264H127.169C126.497 52.264 125.881 52.184 125.321 52.024C124.761 51.88 124.273 51.68 123.857 51.424C123.457 51.152 123.153 50.84 122.945 50.488C122.753 50.136 122.681 49.768 122.729 49.384L123.209 46.24C123.273 45.84 123.457 45.464 123.761 45.112C124.065 44.744 124.449 44.432 124.913 44.176C125.377 43.904 125.905 43.696 126.497 43.552C127.089 43.392 127.705 43.312 128.345 43.312H131.201C131.649 43.312 132.049 43.216 132.401 43.024C132.753 42.816 132.945 42.576 132.977 42.304L133.073 41.728C133.105 41.456 132.977 41.224 132.689 41.032C132.417 40.824 132.049 40.72 131.585 40.72H130.409C129.977 40.72 129.585 40.824 129.233 41.032C128.881 41.224 128.689 41.456 128.657 41.728L128.561 41.824H124.241L124.289 41.2C124.337 40.8 124.513 40.424 124.817 40.072C125.137 39.72 125.537 39.416 126.017 39.16C126.497 38.888 127.041 38.68 127.649 38.536C128.257 38.376 128.897 38.296 129.569 38.296H133.169C133.841 38.296 134.457 38.376 135.017 38.536C135.577 38.68 136.049 38.888 136.433 39.16C136.833 39.416 137.129 39.72 137.321 40.072C137.529 40.424 137.601 40.8 137.537 41.2L136.049 52ZM132.545 45.16C132.113 45.352 131.641 45.496 131.129 45.592C130.633 45.672 130.105 45.712 129.545 45.712H129.233C128.785 45.712 128.393 45.816 128.057 46.024C127.721 46.216 127.521 46.448 127.457 46.72L127.193 48.88C127.161 49.152 127.289 49.376 127.577 49.552C127.881 49.728 128.265 49.816 128.729 49.816H130.313C130.761 49.816 131.153 49.728 131.489 49.552C131.825 49.376 132.017 49.152 132.065 48.88L132.545 45.16ZM148.019 38.296C148.675 38.296 149.275 38.376 149.819 38.536C150.379 38.68 150.859 38.888 151.259 39.16C151.659 39.416 151.955 39.72 152.147 40.072C152.355 40.424 152.435 40.8 152.387 41.2L150.899 52C150.227 52.224 149.619 52.328 149.075 52.312C148.547 52.312 148.099 52.208 147.731 52C147.363 51.792 147.091 51.488 146.915 51.088C146.755 50.672 146.723 50.176 146.819 49.6L147.947 41.728C147.963 41.456 147.827 41.224 147.539 41.032C147.251 40.824 146.883 40.72 146.435 40.72H145.283C144.819 40.72 144.411 40.824 144.059 41.032C143.707 41.224 143.523 41.456 143.507 41.728L142.115 52H137.603L139.523 38.536C140.067 38.472 140.587 38.416 141.083 38.368C141.595 38.304 142.051 38.28 142.451 38.296C142.851 38.312 143.179 38.376 143.435 38.488C143.691 38.584 143.843 38.744 143.891 38.968C144.819 38.52 145.827 38.296 146.915 38.296H148.019ZM162.832 38.296C163.488 38.296 164.088 38.376 164.632 38.536C165.192 38.68 165.672 38.888 166.072 39.16C166.472 39.416 166.768 39.72 166.96 40.072C167.168 40.424 167.248 40.8 167.2 41.2L165.688 52.024H161.248L162.76 41.728C162.776 41.456 162.64 41.224 162.352 41.032C162.064 40.824 161.696 40.72 161.248 40.72H160.096C159.632 40.72 159.224 40.824 158.872 41.032C158.52 41.224 158.336 41.456 158.32 41.728L156.832 52.024H152.416L154.84 34.624C155.48 34.368 156.064 34.264 156.592 34.312C157.136 34.344 157.592 34.496 157.96 34.768C158.328 35.04 158.592 35.416 158.752 35.896C158.928 36.36 158.976 36.896 158.896 37.504L158.704 38.968C159.632 38.52 160.64 38.296 161.728 38.296H162.832Z" fill="#2C88D3"/>
<path d="M181.628 49.6L181.34 52H167.228L167.876 47.104C167.956 46.688 168.148 46.32 168.452 46C168.756 45.68 169.14 45.392 169.604 45.136C170.34 44.704 171.38 44.12 172.724 43.384C174.068 42.632 175.836 41.656 178.028 40.456C178.156 40.376 178.276 40.28 178.388 40.168C178.5 40.04 178.588 39.92 178.652 39.808L178.892 37.768C178.924 37.496 178.796 37.28 178.508 37.12C178.22 36.944 177.852 36.856 177.404 36.856H175.364C174.932 36.856 174.54 36.944 174.188 37.12C173.836 37.28 173.644 37.496 173.612 37.768L173.516 38.536C170.476 39.176 169.084 38.76 169.34 37.288C169.404 36.888 169.58 36.512 169.868 36.16C170.172 35.792 170.556 35.472 171.02 35.2C171.484 34.928 172.012 34.72 172.604 34.576C173.212 34.416 173.844 34.336 174.5 34.336H178.94C179.612 34.336 180.228 34.416 180.788 34.576C181.348 34.72 181.828 34.928 182.228 35.2C182.628 35.472 182.924 35.792 183.116 36.16C183.324 36.512 183.396 36.888 183.332 37.288L182.948 40.024C182.884 40.392 182.7 40.752 182.396 41.104C182.108 41.44 181.74 41.744 181.292 42.016C179.02 43.28 177.148 44.32 175.676 45.136C174.22 45.952 173.284 46.48 172.868 46.72C172.708 46.784 172.572 46.872 172.46 46.984C172.364 47.096 172.308 47.216 172.292 47.344L171.86 49.6H181.628ZM196.706 45.184L196.394 47.632H194.354L193.73 52.024H189.29L189.938 47.632H184.826C183.45 47.632 182.554 47.408 182.138 46.96C181.738 46.512 181.698 45.92 182.018 45.184L191.786 34.696V34.624H196.154L194.666 45.184H196.706ZM191.138 39.28L185.57 45.184H190.298L191.138 39.28ZM207.668 38.296C208.324 38.296 208.924 38.376 209.468 38.536C210.028 38.68 210.508 38.888 210.908 39.16C211.308 39.416 211.604 39.72 211.796 40.072C212.004 40.424 212.084 40.8 212.036 41.2L210.524 52.024H206.084L207.596 41.728C207.612 41.456 207.476 41.224 207.188 41.032C206.9 40.824 206.532 40.72 206.084 40.72H204.932C204.468 40.72 204.06 40.824 203.708 41.032C203.356 41.224 203.172 41.456 203.156 41.728L201.668 52.024H197.252L199.676 34.624C200.316 34.368 200.9 34.264 201.428 34.312C201.972 34.344 202.428 34.496 202.796 34.768C203.164 35.04 203.428 35.416 203.588 35.896C203.764 36.36 203.812 36.896 203.732 37.504L203.54 38.968C204.468 38.52 205.476 38.296 206.564 38.296H207.668Z" fill="url(#paint0_linear)"/>
<path d="M8.47791 30.6066C8.47791 30.1607 8.11103 29.7957 7.66245 29.7957H0.815071C0.366487 29.7957 0 30.1607 0 30.6066C0 31.0529 0.36688 31.418 0.815071 31.418H7.66284C8.11103 31.4176 8.47791 31.0526 8.47791 30.6066Z" fill="url(#paint1_linear)"/>
<path d="M88.217 48.6751C88.217 42.8248 83.4523 38.0843 77.572 38.0843C77.3206 38.0843 77.0731 38.096 76.8296 38.1113L71.3932 26.3989C71.2439 26.0784 71.0436 25.797 70.8079 25.5547C70.5093 25.0154 69.9437 24.6402 69.2838 24.6402H68.8792C68.6946 24.6246 68.506 24.6246 68.3175 24.6402H65.3754L65.1083 22.6041C65.1083 21.291 64.0281 20.2163 62.7122 20.2163H55.6731C57.1422 18.0747 58.3834 16.4294 58.8273 16.2731C58.8705 16.277 58.9098 16.2809 58.953 16.2809C60.8581 16.2809 62.614 15.6244 64.0045 14.5262C65.3989 13.428 66.4281 11.8883 66.8759 10.1297H69.2327C68.9774 8.46874 68.0936 7.01494 66.8366 5.99885C65.8821 2.55195 62.7082 0 58.953 0C56.7022 0 54.6557 0.914483 53.1709 2.39172C51.69 3.86506 50.7669 5.90115 50.7669 8.14046C50.7669 10.6103 51.8943 12.8262 53.6541 14.323C43.1033 14.5145 37.223 19.0322 35.5143 20.5837C34.8426 21.0097 34.3909 21.7561 34.3909 22.6041V22.7761C34.3909 24.0931 35.4672 25.1678 36.7831 25.1678L39.1988 25.1756C36.7085 28.3177 34.988 31.3777 33.9902 33.3708H31.0403C31.1228 33.2145 31.1856 33.0503 31.217 32.8784L34.1906 15.7924C34.3477 14.9053 33.6917 14.1745 32.7411 14.1706L16.4633 14.0651C15.5088 14.0572 14.6053 14.7763 14.4521 15.6635L11.4746 32.7533C11.4354 32.9722 11.4472 33.1793 11.5021 33.3708H6.85919C6.26605 33.3708 5.7829 33.8515 5.7829 34.4455V34.5632C5.7829 35.1533 6.26605 35.6336 6.85919 35.6336H16.9346C16.9504 35.6336 16.9661 35.6379 16.9818 35.6379H63.7413C56.223 29.6074 48.7086 31.0576 48.7086 31.0576C48.7086 31.0576 50.3741 28.3337 52.3657 25.2268L55.6967 25.2386C55.4295 25.5434 55.2606 25.9381 55.2606 26.3719C55.2606 27.3255 56.0423 28.1032 57.0008 28.1032H65.5639C65.6071 28.3923 65.6896 28.6815 65.8153 28.959L69.2916 36.4468L67.9522 37.7795H56.0934C55.6927 37.7795 55.3628 38.1038 55.3628 38.5025C55.3628 38.9015 55.6927 39.2294 56.0934 39.2294H66.9937C67.2569 39.2958 67.4533 39.5307 67.4533 39.8078V39.8816C67.4533 40.0575 67.3748 40.2142 67.253 40.3232H47.0746C46.5089 40.3232 46.0494 40.7805 46.0494 41.3432C46.0494 41.9021 46.5089 42.3593 47.0746 42.3593H63.3485L63.2857 42.4218H63.3642C63.7413 42.4218 64.0516 42.7306 64.0516 43.1058V43.1839C64.0516 43.5591 63.7413 43.8678 63.3642 43.8678H62.7946C62.72 43.8522 62.6454 43.8405 62.5668 43.8405H41.2807C40.7151 43.8405 40.2555 44.2977 40.2555 44.8605C40.2555 45.4193 40.7151 45.8766 41.2807 45.8766H61.4238C61.6634 46.0606 61.8244 46.3455 61.8244 46.6699V46.6816C61.8244 47.2326 61.3727 47.6821 60.8188 47.6821L36.7988 47.4671C36.1625 47.4671 35.64 47.983 35.64 48.62V48.9248C35.64 49.5575 36.1625 50.0773 36.7988 50.0773H57.8178C57.9474 50.0773 58.0731 50.0503 58.191 50.0109C58.4738 50.0929 58.682 50.3509 58.682 50.6596V50.7417C58.682 50.984 58.5484 51.1989 58.352 51.3201H33.7742C33.6681 51.9645 33.4914 52.6293 33.2439 53.3054C33.0396 53.8603 32.7961 54.4035 32.5094 54.935H41.8031L41.7521 54.9858H63.3956C62.6061 59.2765 65.285 62.626 69.9437 62.7511C75.1602 62.8879 80.8794 58.9326 82.7217 53.915C83.3501 52.1955 83.4444 50.5775 83.087 49.1824H88.1934C88.2013 49.0151 88.217 48.8471 88.217 48.6751ZM27.3754 25.856C27.3754 26.153 27.1397 26.3914 26.8412 26.3914H23.9384V29.2795C23.9384 29.5726 23.6987 29.811 23.4041 29.811H21.1102C20.8156 29.811 20.5759 29.5726 20.5759 29.2795V26.3914H17.6731C17.3785 26.3914 17.135 26.153 17.135 25.856V23.5776C17.135 23.2845 17.3785 23.0461 17.6731 23.0461H20.5759V20.1542C20.5759 19.8611 20.8156 19.6227 21.1102 19.6227H23.4041C23.6987 19.6227 23.9384 19.8611 23.9384 20.1542V23.0461H26.8412C27.1397 23.0461 27.3754 23.2845 27.3754 23.5776V25.856ZM76.531 53.7517C75.8986 55.479 73.9268 56.8429 72.1277 56.796C70.3287 56.7491 69.3859 55.3067 70.0183 53.5758C70.6547 51.8484 72.6266 50.4845 74.4256 50.5314C76.2207 50.5783 77.1674 52.0204 76.531 53.7517Z" fill="url(#paint2_linear)"/>
<path d="M77.7782 34.825C77.9534 34.825 78.1227 34.8015 78.29 34.773V28.3595C78.1227 28.331 77.9534 28.3079 77.7782 28.3079C76.0895 28.3079 74.7076 29.6827 74.7076 31.3628V31.77C74.7076 33.4501 76.0891 34.825 77.7782 34.825Z" fill="url(#paint3_linear)"/>
<path d="M43.2345 42.3605C43.7832 42.3605 44.2326 41.9134 44.2326 41.3674C44.2326 40.8215 43.7836 40.3748 43.2345 40.3748H35.7885C35.2397 40.3748 34.7903 40.8215 34.7903 41.3674C34.7903 41.9134 35.2393 42.3605 35.7885 42.3605H43.2345Z" fill="url(#paint4_linear)"/>
<path d="M51.3715 38.7709C51.7093 38.7709 51.9854 38.4962 51.9854 38.1601C51.9854 37.8244 51.7089 37.5493 51.3715 37.5493H48.2243C47.8865 37.5493 47.6103 37.8244 47.6103 38.1601C47.6103 38.4962 47.8869 38.7709 48.2243 38.7709H51.3715Z" fill="url(#paint5_linear)"/>
<path d="M6.9507 26.0674H10.0982C10.4361 26.0674 10.7122 25.7923 10.7122 25.4566C10.7122 25.1209 10.4361 24.8458 10.0982 24.8458H6.9507C6.61288 24.8458 6.33674 25.1209 6.33674 25.4566C6.33674 25.7923 6.61288 26.0674 6.9507 26.0674Z" fill="url(#paint6_linear)"/>
<path d="M13.5003 49.2418C13.5003 48.9057 13.2238 48.6309 12.8864 48.6309H9.73921C9.40139 48.6309 9.12525 48.9057 9.12525 49.2418C9.12525 49.5779 9.40179 49.8526 9.73921 49.8526H12.8864C13.2238 49.8526 13.5003 49.5779 13.5003 49.2418Z" fill="url(#paint7_linear)"/>
<path d="M36.9669 15.0632H44.0056C44.4255 15.0632 44.7688 14.7212 44.7688 14.3039C44.7688 13.8865 44.4251 13.5445 44.0056 13.5445H36.9669C36.547 13.5445 36.2037 13.8865 36.2037 14.3039C36.2037 14.7212 36.547 15.0632 36.9669 15.0632Z" fill="url(#paint8_linear)"/>
<path d="M31.4896 42.2077C31.9119 42.2077 32.2571 41.8642 32.2571 41.4441C32.2571 41.0243 31.9119 40.6804 31.4896 40.6804H24.7345C24.3123 40.6804 23.967 41.0243 23.967 41.4441C23.967 41.8642 24.3123 42.2077 24.7345 42.2077H31.4896Z" fill="url(#paint9_linear)"/>
<path d="M15.1957 46.376C15.1957 45.9559 14.8504 45.6124 14.4281 45.6124H7.67306C7.25079 45.6124 6.90552 45.9559 6.90552 46.376C6.90552 46.7957 7.25079 47.1396 7.67306 47.1396H14.4281C14.8504 47.1396 15.1957 46.7957 15.1957 46.376Z" fill="url(#paint10_linear)"/>
<path d="M25.6745 43.9268C20.4581 43.7861 14.7349 47.7411 12.8966 52.759C11.0543 57.7769 13.7922 61.9585 19.0086 62.0992C24.2251 62.2395 29.9482 58.2846 31.7866 53.2666C33.6288 48.2491 30.891 44.0675 25.6745 43.9268ZM25.1325 53.2706C24.5 55.0022 22.5282 56.3618 20.7291 56.3149C18.9301 56.2684 17.9873 54.826 18.6237 53.0951C19.2561 51.3677 21.228 50.0038 23.027 50.0507C24.8261 50.1015 25.7688 51.5397 25.1325 53.2706Z" fill="url(#paint11_linear)"/>
<defs>
<linearGradient id="paint0_linear" x1="92" y1="54.9991" x2="214" y2="54.9991" gradientUnits="userSpaceOnUse">
<stop stop-color="#FF4449"/>
<stop offset="1" stop-color="#FF710B"/>
</linearGradient>
<linearGradient id="paint1_linear" x1="0" y1="62.7534" x2="88.217" y2="62.7534" gradientUnits="userSpaceOnUse">
<stop stop-color="#FF4449"/>
<stop offset="1" stop-color="#FF710B"/>
</linearGradient>
<linearGradient id="paint2_linear" x1="0" y1="62.7534" x2="88.217" y2="62.7534" gradientUnits="userSpaceOnUse">
<stop stop-color="#FF4449"/>
<stop offset="1" stop-color="#FF710B"/>
</linearGradient>
<linearGradient id="paint3_linear" x1="0" y1="62.7534" x2="88.217" y2="62.7534" gradientUnits="userSpaceOnUse">
<stop stop-color="#FF4449"/>
<stop offset="1" stop-color="#FF710B"/>
</linearGradient>
<linearGradient id="paint4_linear" x1="0" y1="62.7534" x2="88.217" y2="62.7534" gradientUnits="userSpaceOnUse">
<stop stop-color="#FF4449"/>
<stop offset="1" stop-color="#FF710B"/>
</linearGradient>
<linearGradient id="paint5_linear" x1="0" y1="62.7534" x2="88.217" y2="62.7534" gradientUnits="userSpaceOnUse">
<stop stop-color="#FF4449"/>
<stop offset="1" stop-color="#FF710B"/>
</linearGradient>
<linearGradient id="paint6_linear" x1="0" y1="62.7534" x2="88.217" y2="62.7534" gradientUnits="userSpaceOnUse">
<stop stop-color="#FF4449"/>
<stop offset="1" stop-color="#FF710B"/>
</linearGradient>
<linearGradient id="paint7_linear" x1="0" y1="62.7534" x2="88.217" y2="62.7534" gradientUnits="userSpaceOnUse">
<stop stop-color="#FF4449"/>
<stop offset="1" stop-color="#FF710B"/>
</linearGradient>
<linearGradient id="paint8_linear" x1="0" y1="62.7534" x2="88.217" y2="62.7534" gradientUnits="userSpaceOnUse">
<stop stop-color="#FF4449"/>
<stop offset="1" stop-color="#FF710B"/>
</linearGradient>
<linearGradient id="paint9_linear" x1="0" y1="62.7534" x2="88.217" y2="62.7534" gradientUnits="userSpaceOnUse">
<stop stop-color="#FF4449"/>
<stop offset="1" stop-color="#FF710B"/>
</linearGradient>
<linearGradient id="paint10_linear" x1="0" y1="62.7534" x2="88.217" y2="62.7534" gradientUnits="userSpaceOnUse">
<stop stop-color="#FF4449"/>
<stop offset="1" stop-color="#FF710B"/>
</linearGradient>
<linearGradient id="paint11_linear" x1="0" y1="62.7534" x2="88.217" y2="62.7534" gradientUnits="userSpaceOnUse">
<stop stop-color="#FF4449"/>
<stop offset="1" stop-color="#FF710B"/>
</linearGradient>
</defs>
</svg>
