<svg width="31" height="27" viewBox="0 0 31 27" fill="none" xmlns="http://www.w3.org/2000/svg">
<path d="M9.98789 18.0002H9.9893C9.99049 18.0002 9.99167 18 9.99285 18H26.459C26.8644 18 27.2208 17.7335 27.3322 17.3473L30.965 4.74727C31.0433 4.47563 30.9885 4.1836 30.817 3.95813C30.6453 3.73266 30.3768 3.6 30.0918 3.6H7.89334L7.24411 0.704766C7.15164 0.292969 6.78315 0 6.35743 0H0.908205C0.406563 0 0 0.402891 0 0.9C0 1.39711 0.406563 1.8 0.908205 1.8H5.62898C5.74392 2.31305 8.73579 15.6551 8.90797 16.4227C7.94277 16.8384 7.26564 17.7921 7.26564 18.9C7.26564 20.3888 8.48793 21.6 9.99025 21.6H26.459C26.9607 21.6 27.3672 21.1971 27.3672 20.7C27.3672 20.2029 26.9607 19.8 26.459 19.8H9.99025C9.48956 19.8 9.08205 19.3962 9.08205 18.9C9.08205 18.4045 9.48814 18.0014 9.98789 18.0002ZM28.8878 5.4L25.7739 16.2H10.7187L8.29683 5.4H28.8878Z" fill="white"/>
<path d="M9.08204 24.3C9.08204 25.7887 10.3043 27 11.8067 27C13.309 27 14.5313 25.7887 14.5313 24.3C14.5313 22.8112 13.309 21.6 11.8067 21.6C10.3043 21.6 9.08204 22.8112 9.08204 24.3ZM11.8067 23.4C12.3074 23.4 12.7149 23.8038 12.7149 24.3C12.7149 24.7962 12.3074 25.2 11.8067 25.2C11.306 25.2 10.8985 24.7962 10.8985 24.3C10.8985 23.8038 11.306 23.4 11.8067 23.4Z" fill="white"/>
<path d="M21.918 24.3C21.918 25.7887 23.1403 27 24.6426 27C26.1449 27 27.3672 25.7887 27.3672 24.3C27.3672 22.8112 26.1449 21.6 24.6426 21.6C23.1403 21.6 21.918 22.8112 21.918 24.3ZM24.6426 23.4C25.1433 23.4 25.5508 23.8038 25.5508 24.3C25.5508 24.7962 25.1433 25.2 24.6426 25.2C24.1419 25.2 23.7344 24.7962 23.7344 24.3C23.7344 23.8038 24.1419 23.4 24.6426 23.4Z" fill="white"/>
</svg>
