<svg width="61" height="380" viewBox="0 0 61 380" fill="none" xmlns="http://www.w3.org/2000/svg">
<circle cx="30.5" cy="30.5" r="30.5" fill="#E20B0B"/>
<path d="M27.2361 25.9553C26.8331 25.3142 26.5103 24.6329 26.2692 23.9262V34.3031L29.6495 28.5738C28.6951 27.8583 27.8759 26.9731 27.2361 25.9553Z" fill="white"/>
<path d="M35.5769 13C31.2103 13 27.6578 16.5124 27.6578 20.8297C27.6578 21.4336 27.7297 22.0267 27.8648 22.6C27.8679 22.613 27.871 22.6261 27.8741 22.639C27.8891 22.7015 27.9049 22.7637 27.9215 22.8256C27.9248 22.8378 27.9281 22.8501 27.9315 22.8623C28.0053 23.1328 28.0936 23.3983 28.1956 23.6579C28.2001 23.6693 28.2044 23.6807 28.209 23.6922C28.2318 23.7493 28.2553 23.806 28.2793 23.8624C28.2864 23.8791 28.2936 23.8958 28.3009 23.9125C28.325 23.9678 28.3494 24.023 28.3747 24.0777C28.3812 24.0919 28.3881 24.1059 28.3947 24.1201C28.4788 24.2992 28.5696 24.475 28.6669 24.6472C28.674 24.6598 28.6809 24.6725 28.688 24.6851C28.7154 24.7331 28.7438 24.7805 28.7723 24.8277C28.7858 24.8502 28.7992 24.8727 28.8129 24.895C28.8403 24.9395 28.8682 24.9837 28.8965 25.0277C28.9119 25.0519 28.9277 25.0758 28.9436 25.0998C28.9719 25.1428 29.0003 25.1858 29.0294 25.2283C29.0452 25.2511 29.0614 25.2738 29.0774 25.2965C29.1373 25.3817 29.1986 25.4656 29.2618 25.5484C29.2748 25.5655 29.2875 25.583 29.3007 25.5999C29.3288 25.636 29.3577 25.6716 29.3865 25.7074C29.4095 25.736 29.4325 25.7647 29.4559 25.7931C29.484 25.8269 29.5124 25.8604 29.541 25.8937C29.5666 25.9236 29.5924 25.9531 29.6183 25.9826C29.6463 26.0144 29.6745 26.046 29.703 26.0773C29.7317 26.1088 29.761 26.1399 29.7902 26.171C29.8172 26.1996 29.8439 26.2284 29.8713 26.2566C29.9141 26.3007 29.9578 26.3441 30.0016 26.3872C30.0326 26.4178 30.064 26.4479 30.0956 26.4779C30.1363 26.5167 30.1772 26.5553 30.2187 26.5933C30.2446 26.6168 30.2708 26.6399 30.297 26.663C30.3339 26.6957 30.371 26.7283 30.4085 26.7604C30.4355 26.7834 30.4628 26.8063 30.4901 26.829C30.5291 26.8613 30.5683 26.8932 30.6078 26.9248C30.6339 26.9457 30.66 26.9667 30.6864 26.9872C30.7334 27.0238 30.781 27.0596 30.8288 27.0952C30.8483 27.1096 30.8674 27.1246 30.887 27.1388C30.9541 27.1876 31.0219 27.2354 31.0907 27.2823C31.1105 27.2958 31.1307 27.3087 31.1506 27.322C31.2014 27.3559 31.2525 27.3895 31.3042 27.4223C31.3303 27.4388 31.3566 27.455 31.3828 27.4713C31.4301 27.5005 31.4777 27.5294 31.5257 27.5577C31.5527 27.5736 31.5798 27.5895 31.607 27.6052C31.6579 27.6344 31.7092 27.6628 31.7608 27.6909C31.7849 27.704 31.8087 27.7173 31.833 27.7301C31.9086 27.7703 31.9849 27.8097 32.0622 27.8476L34.7783 31.9879C34.9538 32.2554 35.2544 32.4169 35.5769 32.4169C35.8994 32.4169 36.2 32.2555 36.3755 31.9879L39.0917 27.8476C39.1691 27.8097 39.2456 27.7702 39.3214 27.7299C39.3457 27.717 39.3697 27.7035 39.394 27.6904C39.4454 27.6623 39.4966 27.634 39.5473 27.6049C39.575 27.589 39.6025 27.5728 39.63 27.5565C39.6774 27.5286 39.7244 27.5002 39.7711 27.4712C39.7981 27.4545 39.8253 27.4378 39.852 27.4207C39.9013 27.3895 39.95 27.3573 39.9985 27.325C40.0211 27.31 40.044 27.2952 40.0664 27.2799C40.135 27.2331 40.2028 27.1855 40.2697 27.1367C40.2875 27.1237 40.3048 27.1102 40.3224 27.0972C40.3721 27.0603 40.4215 27.0232 40.4702 26.9852C40.4974 26.964 40.5241 26.9424 40.551 26.9208C40.5896 26.89 40.6278 26.8589 40.6657 26.8275C40.6945 26.8035 40.723 26.7793 40.7515 26.755C40.7866 26.7249 40.8215 26.6944 40.8561 26.6636C40.8849 26.6381 40.9137 26.6126 40.9421 26.5868C40.9763 26.5555 41.0099 26.5237 41.0434 26.4918C41.0706 26.466 41.0983 26.4406 41.1251 26.4145C41.1798 26.3612 41.2338 26.3071 41.2868 26.2524C41.3175 26.2208 41.3473 26.1884 41.3774 26.1563C41.4032 26.1288 41.4291 26.1012 41.4546 26.0733C41.486 26.0388 41.5169 26.0038 41.5477 25.9688C41.5703 25.943 41.5929 25.9171 41.6152 25.8911C41.6469 25.8541 41.6783 25.8168 41.7092 25.7792C41.7288 25.7555 41.748 25.7316 41.7672 25.7076C41.7997 25.6672 41.8321 25.6268 41.8639 25.5858C41.8762 25.57 41.888 25.5538 41.9002 25.5378C42.0177 25.3834 42.1293 25.2248 42.235 25.0623C42.2439 25.0485 42.253 25.035 42.2617 25.0212C42.2944 24.9702 42.3262 24.9188 42.3578 24.8671C42.3671 24.8518 42.3763 24.8365 42.3855 24.8212C42.4175 24.7678 42.449 24.7143 42.4796 24.6602C42.4853 24.6503 42.4907 24.6403 42.4963 24.6303C42.6372 24.3798 42.7643 24.1215 42.877 23.8565C42.878 23.8543 42.879 23.852 42.8799 23.8497C42.9077 23.784 42.9346 23.718 42.9606 23.6516C42.9624 23.6471 42.9641 23.6426 42.9659 23.6381C43.1271 23.2245 43.2533 22.796 43.3421 22.3566L43.3422 22.3563C43.4425 21.8591 43.4958 21.3485 43.4958 20.8297C43.496 16.5124 39.9436 13 35.5769 13ZM35.5769 25.081C33.2061 25.081 31.2771 23.1739 31.2771 20.8297C31.2771 18.4856 33.206 16.5784 35.5769 16.5784C37.9478 16.5784 39.8767 18.4855 39.8767 20.8297C39.8767 23.1739 37.9478 25.081 35.5769 25.081Z" fill="white"/>
<path d="M46.2745 23.0663L45.1936 22.8046C44.9599 23.9144 44.5303 24.9808 43.9177 25.9554C43.0473 27.3401 41.8457 28.4808 40.4213 29.2801L38.974 31.4863L42.3738 35.5883H47V23.9805C47 23.5469 46.7004 23.1694 46.2745 23.0663Z" fill="white"/>
<path d="M15.1783 20.5565C14.8945 20.4877 14.5943 20.5517 14.3642 20.7301C14.1343 20.9086 14 21.1816 14 21.4706V30.5687H19.0769C19.3321 30.5687 19.5767 30.67 19.7556 30.85L24.3654 35.4849V22.7809L15.1783 20.5565Z" fill="white"/>
<path d="M33.1811 33.0122L31.1663 29.9412H31.0467L26.2692 38.0389V44.7975L34.625 42.7743V34.1375C34.0398 33.9335 33.5301 33.5443 33.1811 33.0122Z" fill="white"/>
<path d="M41.923 37.4707C41.6378 37.4707 41.3676 37.3442 41.1868 37.126L37.8831 33.1399C37.5391 33.6067 37.066 33.9503 36.5288 34.1374V42.7229L45.8216 44.973C45.8966 44.9911 45.9724 45 46.048 45C46.2589 45 46.4664 44.9307 46.6357 44.7993C46.8657 44.6208 47 44.3479 47 44.0588V37.4707H41.923Z" fill="white"/>
<path d="M18.6779 32.4511H14V41.5491C14 41.9827 14.2995 42.3602 14.7255 42.4633L24.3654 44.7974V38.1696L18.6779 32.4511Z" fill="white"/>
<circle cx="30.5" cy="109.5" r="30.5" fill="white"/>
<circle cx="30.5" cy="349.5" r="30.5" fill="white"/>
<path d="M22.4395 128.966C19.9963 128.966 17.5442 129.045 15.1011 128.957C12.2105 128.844 10 126.483 10 123.669C10 114.582 10.0179 105.494 10 96.3983C10 93.2879 12.4968 91.1184 15.3696 91.04C18.3765 90.9616 21.3924 91.0226 24.4083 91.0226C24.462 91.0226 24.5336 90.9965 24.5604 91.0836C24.5425 91.2404 24.3814 91.2578 24.283 91.3188C22.5111 92.3295 20.8912 93.5405 19.531 95.0391C17.2847 97.5135 15.7275 100.354 15.1995 103.656C14.2688 109.485 16.1392 114.433 20.3722 118.563C21.1239 119.304 21.2224 119.879 20.6228 120.872C19.8979 122.066 18.7971 122.876 17.6248 123.617C17.4995 123.686 17.3742 123.773 17.2489 123.852C17.061 124.009 17.1773 124.087 17.3384 124.157C17.3742 124.235 17.4189 124.305 17.4726 124.375C18.5018 125.263 19.4773 126.213 20.4885 127.119C20.9628 127.546 21.4371 127.99 21.8936 128.435C22.0815 128.6 22.3947 128.652 22.4395 128.966Z" fill="#2C88D3"/>
<path d="M22.4395 128.966C22.3947 128.661 22.0815 128.609 21.8936 128.426C21.4372 127.973 20.9628 127.537 20.4885 127.11C19.4773 126.204 18.5018 125.255 17.4726 124.366C17.4189 124.296 17.3742 124.226 17.3384 124.148C19.6205 124.584 21.8488 124.287 24.0414 123.634C24.7842 123.416 25.527 123.198 26.2787 123.015C26.7888 122.885 27.3258 122.911 27.818 123.085C33.4918 124.984 39.094 124.81 44.6068 122.458C46.8531 121.491 48.9024 120.132 50.6386 118.433C50.7281 118.345 50.7907 118.215 50.9518 118.206C51.0324 118.328 50.9876 118.459 50.9876 118.589V123.686C51.0055 126.596 48.6071 128.966 45.618 128.992H45.5733C42.3516 129.01 39.1298 128.992 35.9081 128.992H22.9764C22.7974 128.975 22.6184 128.966 22.4395 128.966Z" fill="#2C88D3"/>
<path d="M23.8355 109.467C25.1869 109.467 26.4577 109.459 27.7195 109.467C28.4265 109.476 28.8113 109.763 28.8829 110.312C28.9635 111.001 28.5518 111.462 27.7822 111.471C26.3324 111.489 24.8916 111.48 23.4418 111.48C23.0212 111.48 22.6095 111.497 22.1889 111.471C21.6698 111.445 21.1597 111.34 20.9091 110.818C20.6586 110.295 20.8375 109.824 21.1776 109.398C22.5558 107.69 23.9429 105.973 25.3301 104.266C25.4106 104.161 25.4912 104.057 25.5717 103.961C25.4822 103.813 25.3569 103.882 25.2495 103.874C24.283 103.865 23.3075 103.874 22.341 103.865C22.1173 103.865 21.8936 103.839 21.6788 103.795C21.1687 103.682 20.8554 103.185 20.9718 102.698C21.0523 102.366 21.3208 102.096 21.6609 102.018C21.8757 101.966 22.0994 101.94 22.3231 101.94C23.9161 101.931 25.518 101.931 27.111 101.94C27.3973 101.931 27.6748 101.966 27.9522 102.035C28.5608 102.236 28.8203 102.785 28.5786 103.36C28.3639 103.856 28.0238 104.283 27.6837 104.71C26.5114 106.165 25.339 107.611 24.1667 109.049C24.0682 109.162 23.9787 109.276 23.8355 109.467Z" fill="#2C88D3"/>
<path d="M34.3557 104.679C34.5704 104.409 34.7942 104.156 35.1611 104.086C35.8681 103.947 36.5303 104.391 36.5393 105.088C36.5661 106.831 36.5572 108.573 36.5393 110.316C36.5393 110.769 36.235 111.17 35.7965 111.301C35.349 111.466 34.8389 111.335 34.5436 110.961C34.3914 110.778 34.3288 110.743 34.114 110.908C33.2996 111.553 32.3779 111.666 31.3845 111.353C29.7915 110.847 29.1382 109.636 28.9593 108.164C28.7713 106.57 29.3172 105.21 30.7849 104.374C32.002 103.668 33.237 103.729 34.3557 104.679ZM31.1876 107.859C31.1887 107.883 31.1903 107.907 31.1922 107.931C31.2216 108.288 31.3453 108.627 31.5635 108.913C31.8495 109.285 32.2891 109.482 32.7357 109.484C33.0438 109.485 33.3552 109.393 33.6218 109.201C33.7292 109.122 33.8276 109.027 33.9171 108.913C34.4183 108.251 34.4183 107.162 33.9171 106.5C33.7436 106.265 33.5015 106.096 33.2293 106.012C33.1084 105.974 32.9816 105.954 32.8522 105.951C31.9502 105.895 31.2962 106.512 31.1998 107.561C31.1992 107.567 31.1987 107.574 31.1981 107.58C31.1905 107.67 31.1869 107.763 31.1876 107.859ZM40.5575 107.911C40.4859 105.672 41.9983 103.999 44.1461 103.938C46.4282 103.869 48.0927 105.359 48.1643 107.537C48.2359 109.741 46.8488 111.301 44.7099 111.51C42.3742 111.736 40.5217 110.089 40.5575 107.911ZM42.8037 107.702C42.7858 108.138 42.9201 108.565 43.1886 108.922C43.3777 109.163 43.6302 109.329 43.9061 109.415C44.2047 109.508 44.5307 109.507 44.8331 109.404C44.9784 109.354 45.1182 109.281 45.2469 109.183C45.3453 109.114 45.4259 109.027 45.5064 108.939C45.7668 108.607 45.8965 108.161 45.8968 107.715C45.8971 107.273 45.7696 106.83 45.5154 106.5C45.2648 106.169 44.871 105.96 44.4504 105.951C43.4839 105.899 42.8037 106.613 42.8037 107.702ZM39.7699 106.178C39.7699 107.528 39.7789 108.878 39.7699 110.229C39.7789 110.847 39.2777 111.362 38.6423 111.379C38.535 111.379 38.4186 111.37 38.3112 111.344C37.8638 111.231 37.5237 110.769 37.5237 110.22V103.294C37.5237 102.884 37.5147 102.483 37.5237 102.074C37.5326 101.403 37.9711 100.967 38.6334 100.967C39.3135 100.959 39.7699 101.394 39.7699 102.091C39.7789 103.45 39.7699 104.818 39.7699 106.178Z" fill="#2C88D3"/>
<path fill-rule="evenodd" clip-rule="evenodd" d="M31.1922 107.931C31.2216 108.288 31.3448 108.627 31.5546 108.913C31.644 109.027 31.7425 109.122 31.8499 109.201C32.1165 109.393 32.4278 109.485 32.7357 109.484C32.2891 109.482 31.8495 109.285 31.5635 108.913C31.3453 108.627 31.2216 108.288 31.1922 107.931ZM33.2293 106.012C33.1057 105.971 32.9758 105.948 32.8432 105.942C31.9495 105.894 31.2961 106.512 31.1998 107.561C31.2962 106.512 31.9502 105.895 32.8522 105.951C32.9816 105.954 33.1084 105.974 33.2293 106.012Z" fill="#2C88D3"/>
<path fill-rule="evenodd" clip-rule="evenodd" d="M43.1886 108.922C43.2602 109.018 43.3407 109.105 43.4392 109.175C43.5825 109.285 43.7409 109.365 43.9061 109.415C43.6302 109.329 43.3777 109.163 43.1886 108.922ZM45.8968 107.715C45.8965 108.161 45.7668 108.607 45.5064 108.939C45.4259 109.027 45.3453 109.114 45.2469 109.183C45.1182 109.281 44.9784 109.354 44.8331 109.404C45.0906 109.318 45.3263 109.162 45.5064 108.939C45.7674 108.611 45.8971 108.163 45.8968 107.715Z" fill="#2C88D3"/>
<circle cx="30.5" cy="188.5" r="30.5" fill="white"/>
<path fill-rule="evenodd" clip-rule="evenodd" d="M30.5 219C47.3447 219 61 205.345 61 188.5C61 171.655 47.3447 158 30.5 158C13.6553 158 0 171.655 0 188.5C0 205.345 13.6553 219 30.5 219ZM42.9142 208.006L44.6299 200.586C44.7166 200.196 44.6648 199.787 44.4834 199.43C44.302 199.073 44.0022 198.79 43.6354 198.63L35.6471 195.199C35.3051 195.055 34.926 195.025 34.5658 195.114C34.2056 195.203 33.8836 195.405 33.6473 195.691L30.1066 200.062C24.5451 197.431 20.0741 192.945 17.4629 187.374L21.8341 183.834C22.12 183.597 22.3222 183.275 22.4108 182.915C22.4993 182.555 22.4696 182.176 22.3259 181.834L18.8617 173.846C18.6991 173.476 18.4126 173.174 18.0516 172.993C17.6906 172.811 17.2776 172.761 16.8837 172.851L9.46363 174.556C9.08697 174.645 8.75136 174.858 8.51132 175.162C8.27128 175.465 8.1409 175.841 8.14135 176.228C8.14135 185.008 11.6284 193.428 17.8357 199.638C24.043 205.847 32.4623 209.337 41.2422 209.34C41.6317 209.344 42.0106 209.213 42.3152 208.97C42.6197 208.727 42.8313 208.387 42.9142 208.006ZM39.4173 184.646V190.806L28.0413 179.419L39.4173 168.043V174.405L39.4609 174.283H47.6569V184.664H39.4609L39.4173 184.646Z" fill="#00C6FF"/>
<path d="M30.5001 298C47.3448 298 61.0001 284.345 61.0001 267.5C61.0001 250.655 47.3448 237 30.5001 237C13.6553 237 0 250.655 0 267.5C0 284.345 13.6553 298 30.5001 298Z" fill="#FF873D"/>
<path d="M60.9804 268.875C60.2537 285.077 46.8989 298 30.5 298C29.8126 298 29.1449 297.98 28.4772 297.921L11.6855 281.13L49.3147 257.189L60.9805 268.855V268.875H60.9804Z" fill="#E37936"/>
<path d="M49.3147 257.209H11.6855V281.149H49.3147V257.209Z" fill="#F7C600"/>
<path d="M11.6855 257.209H49.3147L30.5001 245.641L11.6855 257.209Z" fill="#FFD630"/>
<path d="M17.0469 252.927H43.9529C45.3473 252.927 46.4864 254.067 46.4864 255.461V281.149H14.5134V255.461C14.5134 254.067 15.6525 252.927 17.0469 252.927Z" fill="white"/>
<path d="M11.6855 257.209L30.0876 269.189L11.6855 281.169V257.229V257.209Z" fill="#FFD630"/>
<path d="M11.6855 281.149H49.3147L30.5001 269.169L11.6855 281.149Z" fill="#F5C918"/>
<path d="M49.3148 257.209L30.9126 269.189L49.3147 281.169V257.229V257.209H49.3148Z" fill="#FFD630"/>
<path d="M30.4999 254.185C36.5488 254.185 41.4586 256.384 41.4586 259.114C41.4586 261.274 38.336 263.12 33.9956 263.788C33.6225 265.084 32.5816 266.361 30.598 267.461C31.5995 266.224 31.5013 264.947 31.2264 264.024C30.9908 264.024 30.7354 264.044 30.4998 264.044C24.4508 264.044 19.541 261.844 19.541 259.114C19.541 256.404 24.451 254.185 30.4999 254.185Z" fill="#00CC96"/>
<path d="M26.749 259.743C26.749 260.057 26.6705 260.332 26.5526 260.548C26.4151 260.764 26.2188 260.941 25.9439 261.058C25.6689 261.176 25.3546 261.235 24.962 261.235C24.5888 261.235 24.2745 261.176 24.0192 261.039C23.764 260.921 23.5676 260.764 23.4497 260.567C23.3318 260.371 23.2729 260.194 23.2729 259.998C23.2729 259.88 23.3123 259.762 23.3908 259.684C23.4694 259.585 23.5676 259.546 23.6854 259.546C23.7836 259.546 23.8818 259.585 23.9407 259.644C23.9996 259.703 24.0586 259.782 24.0978 259.899C24.196 260.096 24.3334 260.253 24.4709 260.351C24.6085 260.449 24.8244 260.508 25.0602 260.508C25.2566 260.508 25.4333 260.449 25.5512 260.351C25.6887 260.253 25.7476 260.135 25.7476 259.998C25.7476 259.801 25.6887 259.644 25.5512 259.566C25.4136 259.467 25.1977 259.389 24.8834 259.31C24.5299 259.212 24.255 259.114 24.0192 258.996C23.8032 258.898 23.6264 258.741 23.489 258.564C23.3515 258.387 23.2926 258.171 23.2926 257.916C23.2926 257.68 23.3515 257.464 23.4694 257.268C23.5872 257.071 23.764 256.895 23.9996 256.777C24.2352 256.659 24.5298 256.6 24.8638 256.6C25.119 256.6 25.3744 256.639 25.5707 256.698C25.7868 256.757 25.9635 256.836 26.1009 256.954C26.2385 257.052 26.3562 257.17 26.4152 257.307C26.4938 257.425 26.5331 257.562 26.5331 257.68C26.5331 257.818 26.4938 257.916 26.4152 257.995C26.3367 258.073 26.2188 258.112 26.0814 258.112C25.9832 258.112 25.885 258.073 25.8065 258.014C25.7279 257.955 25.6494 257.837 25.5512 257.72C25.4726 257.602 25.3744 257.523 25.2762 257.445C25.178 257.386 25.0209 257.346 24.8442 257.346C24.6675 257.346 24.5104 257.386 24.3925 257.484C24.2746 257.582 24.2158 257.68 24.2158 257.818C24.2158 257.936 24.2551 258.034 24.3533 258.112C24.4515 258.191 24.5694 258.25 24.7068 258.309C24.8639 258.368 25.0603 258.427 25.3352 258.486C25.6495 258.564 25.9048 258.682 26.1012 258.8C26.2976 258.918 26.4547 259.055 26.5529 259.232C26.6511 259.389 26.71 259.585 26.71 259.801L26.749 259.743ZM30.9911 258.996V260.528C30.9911 260.764 30.9518 260.941 30.8536 261.078C30.7554 261.196 30.6375 261.255 30.4608 261.255C30.3037 261.255 30.1858 261.196 30.0876 261.078C29.9894 260.96 29.9501 260.783 29.9501 260.528V258.702C29.9501 258.407 29.9501 258.191 29.9304 258.034C29.9107 257.877 29.8715 257.739 29.7929 257.641C29.7143 257.543 29.5965 257.484 29.4197 257.484C29.0859 257.484 28.8698 257.622 28.752 257.877C28.6538 258.132 28.5949 258.505 28.5949 258.977V260.528C28.5949 260.764 28.5556 260.941 28.4574 261.078C28.3592 261.196 28.2413 261.255 28.0842 261.255C27.9271 261.255 27.8093 261.196 27.7111 261.078C27.6129 260.96 27.554 260.783 27.554 260.528V257.248C27.554 257.032 27.5933 256.875 27.6915 256.757C27.7701 256.639 27.8879 256.581 28.045 256.581C28.1825 256.581 28.3003 256.639 28.3985 256.738C28.4967 256.836 28.536 256.993 28.536 257.17V257.288C28.7128 257.052 28.9092 256.875 29.1056 256.757C29.302 256.64 29.5376 256.581 29.7733 256.581C30.0286 256.581 30.2447 256.639 30.4411 256.757C30.6178 256.875 30.7749 257.052 30.8928 257.268C31.0695 257.032 31.2463 256.856 31.4427 256.738C31.6391 256.62 31.8552 256.561 32.0908 256.561C32.3657 256.561 32.6014 256.62 32.8174 256.738C33.0138 256.856 33.1709 257.032 33.2691 257.268C33.3476 257.484 33.4066 257.798 33.4066 258.25V260.489C33.4066 260.724 33.3673 260.901 33.2691 261.039C33.1709 261.157 33.053 261.215 32.8763 261.215C32.7192 261.215 32.6013 261.157 32.5031 261.039C32.4049 260.921 32.3461 260.744 32.3461 260.489V258.564C32.3461 258.309 32.346 258.113 32.3264 257.975C32.3067 257.818 32.2478 257.7 32.1693 257.602C32.0908 257.504 31.9532 257.445 31.7962 257.445C31.6586 257.445 31.5409 257.484 31.4033 257.582C31.2855 257.68 31.1873 257.798 31.1284 257.936C31.0499 258.132 31.0105 258.466 31.0105 258.957L30.9911 258.996ZM37.6489 259.743C37.6489 260.057 37.5704 260.332 37.4525 260.548C37.315 260.764 37.1187 260.941 36.8437 261.058C36.5688 261.176 36.2545 261.235 35.8618 261.235C35.4887 261.235 35.1744 261.176 34.9191 261.039C34.6638 260.921 34.4674 260.764 34.3496 260.567C34.2317 260.371 34.1728 260.194 34.1728 259.998C34.1728 259.88 34.2122 259.762 34.2907 259.684C34.3692 259.585 34.4674 259.546 34.5853 259.546C34.6835 259.546 34.7817 259.585 34.8406 259.644C34.8995 259.703 34.9585 259.782 34.9977 259.899C35.0959 260.096 35.2333 260.253 35.3708 260.351C35.5083 260.449 35.7243 260.508 35.96 260.508C36.1564 260.508 36.3332 260.449 36.4511 260.351C36.5886 260.253 36.6475 260.135 36.6475 259.998C36.6475 259.801 36.5886 259.644 36.4511 259.566C36.3135 259.467 36.0976 259.389 35.7833 259.31C35.4298 259.212 35.1549 259.114 34.9191 258.996C34.7031 258.898 34.5263 258.741 34.3889 258.564C34.2514 258.387 34.1925 258.171 34.1925 257.916C34.1925 257.68 34.2514 257.464 34.3692 257.268C34.4871 257.071 34.6638 256.895 34.8995 256.777C35.1351 256.659 35.4297 256.6 35.7636 256.6C36.0189 256.6 36.2743 256.639 36.4706 256.698C36.6867 256.757 36.8634 256.836 37.0008 256.954C37.1384 257.052 37.2561 257.17 37.3151 257.307C37.3936 257.425 37.433 257.562 37.433 257.68C37.433 257.818 37.3936 257.916 37.3151 257.995C37.2366 258.073 37.1187 258.112 36.9813 258.112C36.8831 258.112 36.7849 258.073 36.7063 258.014C36.6278 257.955 36.5493 257.837 36.4511 257.72C36.3725 257.602 36.2743 257.523 36.1761 257.445C36.0779 257.386 35.9208 257.346 35.7441 257.346C35.5673 257.346 35.4103 257.386 35.2924 257.484C35.1745 257.582 35.1157 257.68 35.1157 257.818C35.1157 257.936 35.155 258.034 35.2532 258.112C35.3514 258.191 35.4693 258.25 35.6067 258.309C35.7637 258.368 35.9602 258.427 36.2351 258.486C36.5494 258.564 36.8047 258.682 37.0011 258.8C37.1975 258.918 37.3546 259.055 37.4528 259.232C37.551 259.389 37.6098 259.585 37.6098 259.801L37.6489 259.743Z" fill="white"/>
<path d="M17.7353 363.785V371.323L24.7833 367.316C26.7479 367.882 28.8363 368.188 31 368.188C42.5988 368.188 52 359.414 52 348.594C52 337.772 42.5988 329 31 329C19.402 329 10 337.772 10 348.594C10 354.721 13.0146 360.193 17.7353 363.785Z" fill="url(#paint0_linear)"/>
<path d="M28.7576 343.227L17.4324 355.218L27.7392 349.563L33.1244 355.218L44.3857 343.227L34.1932 348.783L28.7576 343.227Z" fill="white"/>
<defs>
<linearGradient id="paint0_linear" x1="31" y1="331.861" x2="31" y2="369.46" gradientUnits="userSpaceOnUse">
<stop stop-color="#00C6FF"/>
<stop offset="1" stop-color="#0068FF"/>
</linearGradient>
</defs>
</svg>
